<svg xmlns="http://www.w3.org/2000/svg" width="195.21" height="35" viewBox="0 0 195.21 35"><rect class="svg__rect" x="0" y="0" width="115.31" height="35" fill="#31C4F3"/><rect class="svg__rect" x="113.31" y="0" width="81.9" height="35" fill="#389AD5"/><path class="svg__text" d="M15.69 22L14.22 22L14.22 13.47L16.14 13.47L18.60 20.01L21.06 13.47L22.97 13.47L22.97 22L21.49 22L21.49 19.19L21.64 15.43L19.12 22L18.06 22L15.55 15.43L15.69 19.19L15.69 22ZM28.49 22L26.95 22L30.17 13.47L31.50 13.47L34.73 22L33.18 22L32.49 20.01L29.18 20.01L28.49 22ZM30.83 15.28L29.60 18.82L32.07 18.82L30.83 15.28ZM41.14 22L38.69 22L38.69 13.47L41.21 13.47Q42.34 13.47 43.21 13.97Q44.09 14.48 44.57 15.40Q45.05 16.33 45.05 17.52L45.05 17.52L45.05 17.95Q45.05 19.16 44.57 20.08Q44.08 21.00 43.19 21.50Q42.30 22 41.14 22L41.14 22ZM40.17 14.66L40.17 20.82L41.14 20.82Q42.30 20.82 42.93 20.09Q43.55 19.36 43.56 17.99L43.56 17.99L43.56 17.52Q43.56 16.13 42.96 15.40Q42.35 14.66 41.21 14.66L41.21 14.66L40.17 14.66ZM55.09 22L49.51 22L49.51 13.47L55.05 13.47L55.05 14.66L51.00 14.66L51.00 17.02L54.50 17.02L54.50 18.19L51.00 18.19L51.00 20.82L55.09 20.82L55.09 22ZM66.65 22L64.68 13.47L66.15 13.47L67.47 19.88L69.10 13.47L70.34 13.47L71.96 19.89L73.27 13.47L74.74 13.47L72.77 22L71.35 22L69.73 15.77L68.07 22L66.65 22ZM80.38 22L78.90 22L78.90 13.47L80.38 13.47L80.38 22ZM86.87 14.66L84.23 14.66L84.23 13.47L91.00 13.47L91.00 14.66L88.34 14.66L88.34 22L86.87 22L86.87 14.66ZM96.24 22L94.75 22L94.75 13.47L96.24 13.47L96.24 17.02L100.05 17.02L100.05 13.47L101.53 13.47L101.53 22L100.05 22L100.05 18.21L96.24 18.21L96.24 22Z" fill="#FFFFFF"/><path class="svg__text" d="M129.88 22L127.50 22L127.50 13.60L131.34 13.60Q132.48 13.60 133.32 13.98Q134.16 14.35 134.62 15.06Q135.07 15.76 135.07 16.71L135.07 16.71Q135.07 17.62 134.65 18.30Q134.22 18.98 133.43 19.36L133.43 19.36L135.24 22L132.70 22L131.17 19.77L129.88 19.77L129.88 22ZM129.88 15.47L129.88 17.93L131.20 17.93Q131.93 17.93 132.30 17.61Q132.67 17.29 132.67 16.71L132.67 16.71Q132.67 16.12 132.30 15.79Q131.93 15.47 131.20 15.47L131.20 15.47L129.88 15.47ZM146.61 22L139.86 22L139.86 13.60L146.45 13.60L146.45 15.44L142.22 15.44L142.22 16.85L145.95 16.85L145.95 18.63L142.22 18.63L142.22 20.17L146.61 20.17L146.61 22ZM152.83 22L150.40 22L154.11 13.60L156.45 13.60L160.17 22L157.70 22L157.04 20.37L153.49 20.37L152.83 22ZM155.27 15.93L154.18 18.61L156.34 18.61L155.27 15.93ZM163.90 17.80L163.90 17.80Q163.90 16.54 164.49 15.54Q165.09 14.55 166.14 13.99Q167.20 13.43 168.51 13.43L168.51 13.43Q169.67 13.43 170.59 13.84Q171.51 14.25 172.13 15.02L172.13 15.02L170.62 16.39Q169.80 15.40 168.64 15.40L168.64 15.40Q167.95 15.40 167.42 15.70Q166.88 16 166.59 16.54Q166.29 17.09 166.29 17.80L166.29 17.80Q166.29 18.51 166.59 19.05Q166.88 19.60 167.42 19.90Q167.95 20.20 168.64 20.20L168.64 20.20Q169.80 20.20 170.62 19.22L170.62 19.22L172.13 20.58Q171.52 21.35 170.59 21.76Q169.67 22.17 168.51 22.17L168.51 22.17Q167.20 22.17 166.14 21.61Q165.09 21.05 164.49 20.05Q163.90 19.06 163.90 17.80ZM178.46 15.48L175.87 15.48L175.87 13.60L183.40 13.60L183.40 15.48L180.83 15.48L180.83 22L178.46 22L178.46 15.48Z" fill="#FFFFFF" x="126.31"/></svg>